<mxfile host="app.diagrams.net" modified="2021-12-27T08:23:02.011Z" agent="5.0 (Macintosh; Intel Mac OS X 10_15_7) AppleWebKit/605.1.15 (KHTML, like Gecko) Version/15.2 Safari/605.1.15" etag="VHi7AtSTuTWB1YX7cxQ7" version="16.1.0" type="github" pages="2">
  <diagram name="Page-1" id="03018318-947c-dd8e-b7a3-06fadd420f32">
    <mxGraphModel dx="1298" dy="868" grid="1" gridSize="10" guides="1" tooltips="1" connect="1" arrows="1" fold="1" page="1" pageScale="1" pageWidth="1100" pageHeight="850" background="none" math="0" shadow="0">
      <root>
        <mxCell id="0" />
        <mxCell id="1" parent="0" />
        <mxCell id="677b7b8949515195-1" value="&lt;span style=&quot;color: rgba(0 , 0 , 0 , 0) ; font-family: monospace ; font-size: 0px&quot;&gt;jjhhgv&lt;/span&gt;" style="whiteSpace=wrap;html=1;rounded=0;shadow=0;labelBackgroundColor=none;strokeColor=#000000;strokeWidth=1;fillColor=none;fontFamily=Verdana;fontSize=12;fontColor=#000000;align=center;comic=1;" parent="1" vertex="1">
          <mxGeometry x="20" y="20" width="1061" height="1350" as="geometry" />
        </mxCell>
        <mxCell id="677b7b8949515195-2" value="LOGO" style="whiteSpace=wrap;html=1;rounded=0;shadow=0;labelBackgroundColor=none;strokeWidth=1;fontFamily=Verdana;fontSize=28;align=center;comic=1;" parent="1" vertex="1">
          <mxGeometry x="35" y="30" width="105" height="50" as="geometry" />
        </mxCell>
        <mxCell id="677b7b8949515195-4" value="Facebook" style="text;html=1;points=[];align=left;verticalAlign=top;spacingTop=-4;fontSize=14;fontFamily=Verdana" parent="1" vertex="1">
          <mxGeometry x="150" y="45" width="70" height="20" as="geometry" />
        </mxCell>
        <mxCell id="677b7b8949515195-5" value="GitHub" style="text;html=1;points=[];align=left;verticalAlign=top;spacingTop=-4;fontSize=14;fontFamily=Verdana" parent="1" vertex="1">
          <mxGeometry x="240" y="45" width="60" height="20" as="geometry" />
        </mxCell>
        <mxCell id="677b7b8949515195-6" value="username" style="text;html=1;points=[];align=left;verticalAlign=top;spacingTop=-4;fontSize=14;fontFamily=Verdana" parent="1" vertex="1">
          <mxGeometry x="995" y="45" width="60" height="20" as="geometry" />
        </mxCell>
        <mxCell id="677b7b8949515195-9" value="" style="line;strokeWidth=1;html=1;rounded=0;shadow=0;labelBackgroundColor=none;fillColor=none;fontFamily=Verdana;fontSize=14;fontColor=#000000;align=center;comic=1;" parent="1" vertex="1">
          <mxGeometry x="20" y="50" width="1060" height="100" as="geometry" />
        </mxCell>
        <mxCell id="677b7b8949515195-12" value="Front-End" style="text;html=1;points=[];align=left;verticalAlign=top;spacingTop=-4;fontSize=14;fontFamily=Verdana" parent="1" vertex="1">
          <mxGeometry x="133" y="130" width="87" height="20" as="geometry" />
        </mxCell>
        <mxCell id="677b7b8949515195-13" value="Back-End" style="text;html=1;points=[];align=left;verticalAlign=top;spacingTop=-4;fontSize=14;fontFamily=Verdana" parent="1" vertex="1">
          <mxGeometry x="250" y="130" width="60" height="20" as="geometry" />
        </mxCell>
        <mxCell id="U6qzgW5tZ1UKqhicehqg-9" value="image" style="ellipse;whiteSpace=wrap;html=1;aspect=fixed;" parent="1" vertex="1">
          <mxGeometry x="930" y="30" width="50" height="50" as="geometry" />
        </mxCell>
        <mxCell id="U6qzgW5tZ1UKqhicehqg-12" value="IOS" style="text;html=1;points=[];align=left;verticalAlign=top;spacingTop=-4;fontSize=14;fontFamily=Verdana" parent="1" vertex="1">
          <mxGeometry x="360" y="130" width="60" height="20" as="geometry" />
        </mxCell>
        <mxCell id="U6qzgW5tZ1UKqhicehqg-13" value="Android" style="text;html=1;points=[];align=left;verticalAlign=top;spacingTop=-4;fontSize=14;fontFamily=Verdana" parent="1" vertex="1">
          <mxGeometry x="430" y="130" width="60" height="20" as="geometry" />
        </mxCell>
        <mxCell id="U6qzgW5tZ1UKqhicehqg-14" value="Tips &amp;amp; Tricks" style="text;html=1;points=[];align=left;verticalAlign=top;spacingTop=-4;fontSize=14;fontFamily=Verdana" parent="1" vertex="1">
          <mxGeometry x="530" y="130" width="60" height="20" as="geometry" />
        </mxCell>
        <mxCell id="U6qzgW5tZ1UKqhicehqg-15" value="Others" style="text;html=1;points=[];align=left;verticalAlign=top;spacingTop=-4;fontSize=14;fontFamily=Verdana" parent="1" vertex="1">
          <mxGeometry x="670" y="130" width="60" height="20" as="geometry" />
        </mxCell>
        <mxCell id="U6qzgW5tZ1UKqhicehqg-17" value="image" style="whiteSpace=wrap;html=1;aspect=fixed;" parent="1" vertex="1">
          <mxGeometry x="50" y="200" width="200" height="200" as="geometry" />
        </mxCell>
        <mxCell id="U6qzgW5tZ1UKqhicehqg-20" value="Date: 2021-1-1" style="text;html=1;points=[];align=left;verticalAlign=top;spacingTop=-4;fontSize=14;fontFamily=Verdana" parent="1" vertex="1">
          <mxGeometry x="280" y="380" width="110" height="20" as="geometry" />
        </mxCell>
        <mxCell id="U6qzgW5tZ1UKqhicehqg-21" value="Author: admin" style="text;html=1;points=[];align=left;verticalAlign=top;spacingTop=-4;fontSize=14;fontFamily=Verdana" parent="1" vertex="1">
          <mxGeometry x="560" y="380" width="60" height="20" as="geometry" />
        </mxCell>
        <mxCell id="U6qzgW5tZ1UKqhicehqg-28" value="" style="triangle;whiteSpace=wrap;html=1;strokeWidth=1;direction=south;" parent="1" vertex="1">
          <mxGeometry x="1020" y="380" width="30" height="20" as="geometry" />
        </mxCell>
        <mxCell id="U6qzgW5tZ1UKqhicehqg-29" value="" style="triangle;whiteSpace=wrap;html=1;strokeWidth=1;direction=north;" parent="1" vertex="1">
          <mxGeometry x="960" y="380" width="30" height="20" as="geometry" />
        </mxCell>
        <mxCell id="U6qzgW5tZ1UKqhicehqg-30" value="0" style="text;html=1;points=[];align=center;verticalAlign=top;spacingTop=-4;fontSize=14;fontFamily=Verdana" parent="1" vertex="1">
          <mxGeometry x="990" y="380" width="30" height="20" as="geometry" />
        </mxCell>
        <mxCell id="U6qzgW5tZ1UKqhicehqg-31" value="image" style="whiteSpace=wrap;html=1;aspect=fixed;" parent="1" vertex="1">
          <mxGeometry x="50" y="480" width="200" height="200" as="geometry" />
        </mxCell>
        <mxCell id="U6qzgW5tZ1UKqhicehqg-32" value="&lt;span style=&quot;font-size: 21px&quot;&gt;Title:&amp;nbsp;&lt;/span&gt;&lt;span style=&quot;font-size: 21px&quot;&gt;Lorem ipsum dolor sit.&lt;/span&gt;" style="text;html=1;points=[];align=left;verticalAlign=top;spacingTop=-4;fontSize=14;fontFamily=Verdana" parent="1" vertex="1">
          <mxGeometry x="280" y="220" width="220" height="40" as="geometry" />
        </mxCell>
        <mxCell id="U6qzgW5tZ1UKqhicehqg-33" value="&lt;font style=&quot;font-size: 21px&quot;&gt;Title:&amp;nbsp;Lorem ipsum dolor sit.&lt;/font&gt;" style="text;html=1;points=[];align=left;verticalAlign=top;spacingTop=-4;fontSize=14;fontFamily=Verdana" parent="1" vertex="1">
          <mxGeometry x="280" y="500" width="220" height="40" as="geometry" />
        </mxCell>
        <mxCell id="U6qzgW5tZ1UKqhicehqg-34" value="Date: 2021-1-1" style="text;html=1;points=[];align=left;verticalAlign=top;spacingTop=-4;fontSize=14;fontFamily=Verdana" parent="1" vertex="1">
          <mxGeometry x="280" y="660" width="110" height="20" as="geometry" />
        </mxCell>
        <mxCell id="U6qzgW5tZ1UKqhicehqg-35" value="Author: catmeow" style="text;html=1;points=[];align=left;verticalAlign=top;spacingTop=-4;fontSize=14;fontFamily=Verdana" parent="1" vertex="1">
          <mxGeometry x="560" y="660" width="60" height="20" as="geometry" />
        </mxCell>
        <mxCell id="U6qzgW5tZ1UKqhicehqg-36" value="" style="triangle;whiteSpace=wrap;html=1;strokeWidth=1;direction=north;" parent="1" vertex="1">
          <mxGeometry x="960" y="660" width="30" height="20" as="geometry" />
        </mxCell>
        <mxCell id="U6qzgW5tZ1UKqhicehqg-37" value="" style="triangle;whiteSpace=wrap;html=1;strokeWidth=1;direction=south;" parent="1" vertex="1">
          <mxGeometry x="1010" y="660" width="30" height="20" as="geometry" />
        </mxCell>
        <mxCell id="U6qzgW5tZ1UKqhicehqg-38" value="0" style="text;html=1;points=[];align=center;verticalAlign=top;spacingTop=-4;fontSize=14;fontFamily=Verdana" parent="1" vertex="1">
          <mxGeometry x="990" y="660" width="30" height="20" as="geometry" />
        </mxCell>
        <mxCell id="U6qzgW5tZ1UKqhicehqg-40" value="Prev" style="rounded=0;whiteSpace=wrap;html=1;fontSize=18;strokeWidth=1;" parent="1" vertex="1">
          <mxGeometry x="430" y="770" width="70" height="40" as="geometry" />
        </mxCell>
        <mxCell id="U6qzgW5tZ1UKqhicehqg-41" value="Next" style="rounded=0;whiteSpace=wrap;html=1;fontSize=18;strokeWidth=1;" parent="1" vertex="1">
          <mxGeometry x="590" y="770" width="70" height="40" as="geometry" />
        </mxCell>
        <mxCell id="U6qzgW5tZ1UKqhicehqg-42" value="&lt;span style=&quot;line-height: 1.2&quot;&gt;&lt;font style=&quot;font-size: 24px&quot;&gt;1&lt;/font&gt;&lt;/span&gt;" style="text;html=1;points=[];align=center;verticalAlign=top;spacingTop=-4;fontSize=14;fontFamily=Verdana" parent="1" vertex="1">
          <mxGeometry x="510" y="770" width="70" height="40" as="geometry" />
        </mxCell>
        <mxCell id="l-I5OwBLCRgFZHkfo6L_-5" value="Address: 512 Nguyen Xien, Long Thanh My Ward, Thu Duc City, Ho Chi Minh City" style="text;html=1;points=[];align=left;verticalAlign=top;spacingTop=-4;fontSize=14;fontFamily=Verdana" parent="1" vertex="1">
          <mxGeometry x="80" y="1020" width="690" height="20" as="geometry" />
        </mxCell>
        <mxCell id="l-I5OwBLCRgFZHkfo6L_-6" value="Email: 18110175@student.hcmute.edu.vn" style="text;html=1;points=[];align=left;verticalAlign=top;spacingTop=-4;fontSize=14;fontFamily=Verdana" parent="1" vertex="1">
          <mxGeometry x="80" y="1060" width="310" height="20" as="geometry" />
        </mxCell>
        <mxCell id="l-I5OwBLCRgFZHkfo6L_-7" value="Phone Number: (+84) 902-746-276" style="text;html=1;points=[];align=left;verticalAlign=top;spacingTop=-4;fontSize=14;fontFamily=Verdana" parent="1" vertex="1">
          <mxGeometry x="80" y="1100" width="320" height="20" as="geometry" />
        </mxCell>
        <mxCell id="l-I5OwBLCRgFZHkfo6L_-12" value="" style="ellipse;whiteSpace=wrap;html=1;aspect=fixed;rounded=0;shadow=0;glass=0;sketch=0;fontSize=24;strokeWidth=1;" parent="1" vertex="1">
          <mxGeometry x="83" y="1200" width="50" height="50" as="geometry" />
        </mxCell>
        <mxCell id="l-I5OwBLCRgFZHkfo6L_-15" value="FOOTER" style="text;html=1;points=[];align=left;verticalAlign=top;spacingTop=-4;fontSize=14;fontFamily=Verdana" parent="1" vertex="1">
          <mxGeometry x="525" y="1320" width="70" height="20" as="geometry" />
        </mxCell>
        <mxCell id="l-I5OwBLCRgFZHkfo6L_-16" value="&lt;div style=&quot;background-color: rgb(255, 255, 255); font-family: menlo, monaco, &amp;quot;courier new&amp;quot;, monospace; font-size: 15px; line-height: 18px;&quot;&gt;Lorem, ipsum dolor sit amet consectetur adipisicing elit. Explicabo, nostrum.&lt;/div&gt;" style="text;html=1;points=[];align=left;verticalAlign=top;spacingTop=-4;fontSize=15;fontFamily=Verdana" parent="1" vertex="1">
          <mxGeometry x="280" y="280" width="60" height="20" as="geometry" />
        </mxCell>
        <mxCell id="l-I5OwBLCRgFZHkfo6L_-17" value="&lt;div style=&quot;background-color: rgb(255, 255, 255); font-family: menlo, monaco, &amp;quot;courier new&amp;quot;, monospace; font-size: 15px; line-height: 18px;&quot;&gt;Lorem, ipsum dolor sit amet consectetur adipisicing elit. Explicabo, nostrum.&lt;/div&gt;" style="text;html=1;points=[];align=left;verticalAlign=top;spacingTop=-4;fontSize=15;fontFamily=Verdana" parent="1" vertex="1">
          <mxGeometry x="280" y="560" width="60" height="20" as="geometry" />
        </mxCell>
        <mxCell id="mXzfX_LzROd3ApEP94NG-2" value="btn" style="rounded=1;whiteSpace=wrap;html=1;" vertex="1" parent="1">
          <mxGeometry x="830" y="40" width="30" height="30" as="geometry" />
        </mxCell>
        <mxCell id="mXzfX_LzROd3ApEP94NG-3" value="btn" style="rounded=1;whiteSpace=wrap;html=1;" vertex="1" parent="1">
          <mxGeometry x="880" y="40" width="30" height="30" as="geometry" />
        </mxCell>
        <mxCell id="mXzfX_LzROd3ApEP94NG-4" value="btn" style="rounded=1;whiteSpace=wrap;html=1;" vertex="1" parent="1">
          <mxGeometry x="780" y="40" width="30" height="30" as="geometry" />
        </mxCell>
        <mxCell id="mXzfX_LzROd3ApEP94NG-5" value="" style="rounded=1;whiteSpace=wrap;html=1;" vertex="1" parent="1">
          <mxGeometry x="30" y="115" width="90" height="50" as="geometry" />
        </mxCell>
        <mxCell id="677b7b8949515195-11" value="Newest" style="text;html=1;points=[];align=left;verticalAlign=top;spacingTop=-4;fontSize=14;fontFamily=Verdana" parent="1" vertex="1">
          <mxGeometry x="50" y="130" width="60" height="20" as="geometry" />
        </mxCell>
        <mxCell id="njDdzS2sQ7bEMdbGtDHy-3" value="" style="ellipse;whiteSpace=wrap;html=1;aspect=fixed;rounded=0;shadow=0;glass=0;sketch=0;fontSize=24;strokeWidth=1;" vertex="1" parent="1">
          <mxGeometry x="151.5" y="1200" width="50" height="50" as="geometry" />
        </mxCell>
        <mxCell id="njDdzS2sQ7bEMdbGtDHy-4" value="" style="ellipse;whiteSpace=wrap;html=1;aspect=fixed;rounded=0;shadow=0;glass=0;sketch=0;fontSize=24;strokeWidth=1;" vertex="1" parent="1">
          <mxGeometry x="220" y="1200" width="50" height="50" as="geometry" />
        </mxCell>
        <mxCell id="njDdzS2sQ7bEMdbGtDHy-5" value="" style="ellipse;whiteSpace=wrap;html=1;aspect=fixed;rounded=0;shadow=0;glass=0;sketch=0;fontSize=24;strokeWidth=1;" vertex="1" parent="1">
          <mxGeometry x="285" y="1200" width="50" height="50" as="geometry" />
        </mxCell>
        <mxCell id="njDdzS2sQ7bEMdbGtDHy-7" value="" style="line;strokeWidth=1;html=1;rounded=0;shadow=0;labelBackgroundColor=none;fillColor=none;fontFamily=Verdana;fontSize=14;fontColor=#000000;align=center;comic=1;" vertex="1" parent="1">
          <mxGeometry x="21" y="130" width="1060" height="100" as="geometry" />
        </mxCell>
        <mxCell id="njDdzS2sQ7bEMdbGtDHy-8" value="" style="line;strokeWidth=1;html=1;rounded=0;shadow=0;labelBackgroundColor=none;fillColor=none;fontFamily=Verdana;fontSize=14;fontColor=#000000;align=center;comic=1;" vertex="1" parent="1">
          <mxGeometry x="21" y="370" width="1060" height="100" as="geometry" />
        </mxCell>
        <mxCell id="njDdzS2sQ7bEMdbGtDHy-9" value="" style="line;strokeWidth=1;html=1;rounded=0;shadow=0;labelBackgroundColor=none;fillColor=none;fontFamily=Verdana;fontSize=14;fontColor=#000000;align=center;comic=1;" vertex="1" parent="1">
          <mxGeometry x="20" y="410" width="1060" height="100" as="geometry" />
        </mxCell>
        <mxCell id="njDdzS2sQ7bEMdbGtDHy-10" value="" style="line;strokeWidth=1;html=1;rounded=0;shadow=0;labelBackgroundColor=none;fillColor=none;fontFamily=Verdana;fontSize=14;fontColor=#000000;align=center;comic=1;" vertex="1" parent="1">
          <mxGeometry x="21" y="650" width="1060" height="100" as="geometry" />
        </mxCell>
        <mxCell id="njDdzS2sQ7bEMdbGtDHy-11" value="" style="line;strokeWidth=1;html=1;rounded=0;shadow=0;labelBackgroundColor=none;fillColor=none;fontFamily=Verdana;fontSize=14;fontColor=#000000;align=center;comic=1;" vertex="1" parent="1">
          <mxGeometry x="21" y="1250" width="1060" height="100" as="geometry" />
        </mxCell>
      </root>
    </mxGraphModel>
  </diagram>
  <diagram id="Vc_ujapsfLReIZhN2_QM" name="Page-2">
    <mxGraphModel grid="1" gridSize="10" guides="1" tooltips="1" connect="1" arrows="1" page="1" fold="1" pageScale="1" pageWidth="850" pageHeight="1100" math="0" shadow="0">
      <root>
        <mxCell id="QFM437kmrdviyDUw9z9s-0" />
        <mxCell id="QFM437kmrdviyDUw9z9s-1" parent="QFM437kmrdviyDUw9z9s-0" />
        <mxCell id="J9zRjc5HrnkV6WT7q6qR-47" value="&lt;span style=&quot;color: rgba(0 , 0 , 0 , 0) ; font-family: monospace ; font-size: 0px&quot;&gt;jjhhgv&lt;/span&gt;" style="whiteSpace=wrap;html=1;rounded=0;shadow=0;labelBackgroundColor=none;strokeColor=#000000;strokeWidth=1;fillColor=none;fontFamily=Verdana;fontSize=12;fontColor=#000000;align=center;comic=1;" vertex="1" parent="QFM437kmrdviyDUw9z9s-1">
          <mxGeometry x="30" y="30" width="1061" height="880" as="geometry" />
        </mxCell>
        <mxCell id="J9zRjc5HrnkV6WT7q6qR-48" value="LOGO" style="whiteSpace=wrap;html=1;rounded=0;shadow=0;labelBackgroundColor=none;strokeWidth=1;fontFamily=Verdana;fontSize=28;align=center;comic=1;" vertex="1" parent="QFM437kmrdviyDUw9z9s-1">
          <mxGeometry x="45" y="40" width="105" height="50" as="geometry" />
        </mxCell>
        <mxCell id="J9zRjc5HrnkV6WT7q6qR-49" value="Facebook" style="text;html=1;points=[];align=left;verticalAlign=top;spacingTop=-4;fontSize=14;fontFamily=Verdana" vertex="1" parent="QFM437kmrdviyDUw9z9s-1">
          <mxGeometry x="160" y="55" width="70" height="20" as="geometry" />
        </mxCell>
        <mxCell id="J9zRjc5HrnkV6WT7q6qR-50" value="GitHub" style="text;html=1;points=[];align=left;verticalAlign=top;spacingTop=-4;fontSize=14;fontFamily=Verdana" vertex="1" parent="QFM437kmrdviyDUw9z9s-1">
          <mxGeometry x="250" y="55" width="60" height="20" as="geometry" />
        </mxCell>
        <mxCell id="J9zRjc5HrnkV6WT7q6qR-51" value="Topic 3" style="text;html=1;points=[];align=left;verticalAlign=top;spacingTop=-4;fontSize=14;fontFamily=Verdana" vertex="1" parent="QFM437kmrdviyDUw9z9s-1">
          <mxGeometry x="1000" y="60" width="60" height="20" as="geometry" />
        </mxCell>
        <mxCell id="J9zRjc5HrnkV6WT7q6qR-52" value="" style="line;strokeWidth=1;html=1;rounded=0;shadow=0;labelBackgroundColor=none;fillColor=none;fontFamily=Verdana;fontSize=14;fontColor=#000000;align=center;comic=1;" vertex="1" parent="QFM437kmrdviyDUw9z9s-1">
          <mxGeometry x="30" y="60" width="1060" height="100" as="geometry" />
        </mxCell>
        <mxCell id="J9zRjc5HrnkV6WT7q6qR-53" value="Newest" style="text;html=1;points=[];align=left;verticalAlign=top;spacingTop=-4;fontSize=14;fontFamily=Verdana" vertex="1" parent="QFM437kmrdviyDUw9z9s-1">
          <mxGeometry x="60" y="140" width="60" height="20" as="geometry" />
        </mxCell>
        <mxCell id="J9zRjc5HrnkV6WT7q6qR-54" value="Front-End" style="text;html=1;points=[];align=left;verticalAlign=top;spacingTop=-4;fontSize=14;fontFamily=Verdana" vertex="1" parent="QFM437kmrdviyDUw9z9s-1">
          <mxGeometry x="143" y="140" width="87" height="20" as="geometry" />
        </mxCell>
        <mxCell id="J9zRjc5HrnkV6WT7q6qR-55" value="Back-End" style="text;html=1;points=[];align=left;verticalAlign=top;spacingTop=-4;fontSize=14;fontFamily=Verdana" vertex="1" parent="QFM437kmrdviyDUw9z9s-1">
          <mxGeometry x="260" y="140" width="60" height="20" as="geometry" />
        </mxCell>
        <mxCell id="J9zRjc5HrnkV6WT7q6qR-56" value="" style="rounded=0;whiteSpace=wrap;html=1;" vertex="1" parent="QFM437kmrdviyDUw9z9s-1">
          <mxGeometry x="850" y="40" width="50" height="50" as="geometry" />
        </mxCell>
        <mxCell id="J9zRjc5HrnkV6WT7q6qR-57" value="" style="whiteSpace=wrap;html=1;aspect=fixed;" vertex="1" parent="QFM437kmrdviyDUw9z9s-1">
          <mxGeometry x="760" y="40" width="50" height="50" as="geometry" />
        </mxCell>
        <mxCell id="J9zRjc5HrnkV6WT7q6qR-58" value="" style="ellipse;whiteSpace=wrap;html=1;aspect=fixed;" vertex="1" parent="QFM437kmrdviyDUw9z9s-1">
          <mxGeometry x="940" y="40" width="50" height="50" as="geometry" />
        </mxCell>
        <mxCell id="J9zRjc5HrnkV6WT7q6qR-59" value="IOS" style="text;html=1;points=[];align=left;verticalAlign=top;spacingTop=-4;fontSize=14;fontFamily=Verdana" vertex="1" parent="QFM437kmrdviyDUw9z9s-1">
          <mxGeometry x="370" y="140" width="60" height="20" as="geometry" />
        </mxCell>
        <mxCell id="J9zRjc5HrnkV6WT7q6qR-60" value="Android" style="text;html=1;points=[];align=left;verticalAlign=top;spacingTop=-4;fontSize=14;fontFamily=Verdana" vertex="1" parent="QFM437kmrdviyDUw9z9s-1">
          <mxGeometry x="440" y="140" width="60" height="20" as="geometry" />
        </mxCell>
        <mxCell id="J9zRjc5HrnkV6WT7q6qR-61" value="Tips &amp;amp; Tricks" style="text;html=1;points=[];align=left;verticalAlign=top;spacingTop=-4;fontSize=14;fontFamily=Verdana" vertex="1" parent="QFM437kmrdviyDUw9z9s-1">
          <mxGeometry x="540" y="140" width="60" height="20" as="geometry" />
        </mxCell>
        <mxCell id="J9zRjc5HrnkV6WT7q6qR-62" value="Others" style="text;html=1;points=[];align=left;verticalAlign=top;spacingTop=-4;fontSize=14;fontFamily=Verdana" vertex="1" parent="QFM437kmrdviyDUw9z9s-1">
          <mxGeometry x="680" y="140" width="60" height="20" as="geometry" />
        </mxCell>
        <mxCell id="J9zRjc5HrnkV6WT7q6qR-66" value="" style="line;strokeWidth=1;html=1;" vertex="1" parent="QFM437kmrdviyDUw9z9s-1">
          <mxGeometry x="30" y="440" width="1060" height="10" as="geometry" />
        </mxCell>
        <mxCell id="J9zRjc5HrnkV6WT7q6qR-67" value="" style="triangle;whiteSpace=wrap;html=1;strokeWidth=1;direction=south;" vertex="1" parent="QFM437kmrdviyDUw9z9s-1">
          <mxGeometry x="1030" y="390" width="30" height="20" as="geometry" />
        </mxCell>
        <mxCell id="J9zRjc5HrnkV6WT7q6qR-68" value="" style="triangle;whiteSpace=wrap;html=1;strokeWidth=1;direction=north;" vertex="1" parent="QFM437kmrdviyDUw9z9s-1">
          <mxGeometry x="970" y="390" width="30" height="20" as="geometry" />
        </mxCell>
        <mxCell id="J9zRjc5HrnkV6WT7q6qR-69" value="0" style="text;html=1;points=[];align=center;verticalAlign=top;spacingTop=-4;fontSize=14;fontFamily=Verdana" vertex="1" parent="QFM437kmrdviyDUw9z9s-1">
          <mxGeometry x="1000" y="390" width="30" height="20" as="geometry" />
        </mxCell>
        <mxCell id="J9zRjc5HrnkV6WT7q6qR-70" value="" style="whiteSpace=wrap;html=1;aspect=fixed;" vertex="1" parent="QFM437kmrdviyDUw9z9s-1">
          <mxGeometry x="60" y="490" width="200" height="200" as="geometry" />
        </mxCell>
        <mxCell id="J9zRjc5HrnkV6WT7q6qR-72" value="&lt;font style=&quot;font-size: 21px&quot;&gt;Title:&amp;nbsp;Lorem ipsum dolor sit.&lt;/font&gt;" style="text;html=1;points=[];align=left;verticalAlign=top;spacingTop=-4;fontSize=14;fontFamily=Verdana" vertex="1" parent="QFM437kmrdviyDUw9z9s-1">
          <mxGeometry x="290" y="510" width="220" height="40" as="geometry" />
        </mxCell>
        <mxCell id="J9zRjc5HrnkV6WT7q6qR-73" value="Date: 2021-1-1" style="text;html=1;points=[];align=left;verticalAlign=top;spacingTop=-4;fontSize=14;fontFamily=Verdana" vertex="1" parent="QFM437kmrdviyDUw9z9s-1">
          <mxGeometry x="290" y="670" width="110" height="20" as="geometry" />
        </mxCell>
        <mxCell id="J9zRjc5HrnkV6WT7q6qR-74" value="Author:" style="text;html=1;points=[];align=left;verticalAlign=top;spacingTop=-4;fontSize=14;fontFamily=Verdana" vertex="1" parent="QFM437kmrdviyDUw9z9s-1">
          <mxGeometry x="570" y="670" width="60" height="20" as="geometry" />
        </mxCell>
        <mxCell id="J9zRjc5HrnkV6WT7q6qR-75" value="" style="triangle;whiteSpace=wrap;html=1;strokeWidth=1;direction=north;" vertex="1" parent="QFM437kmrdviyDUw9z9s-1">
          <mxGeometry x="970" y="670" width="30" height="20" as="geometry" />
        </mxCell>
        <mxCell id="J9zRjc5HrnkV6WT7q6qR-76" value="" style="triangle;whiteSpace=wrap;html=1;strokeWidth=1;direction=south;" vertex="1" parent="QFM437kmrdviyDUw9z9s-1">
          <mxGeometry x="1020" y="670" width="30" height="20" as="geometry" />
        </mxCell>
        <mxCell id="J9zRjc5HrnkV6WT7q6qR-77" value="0" style="text;html=1;points=[];align=center;verticalAlign=top;spacingTop=-4;fontSize=14;fontFamily=Verdana" vertex="1" parent="QFM437kmrdviyDUw9z9s-1">
          <mxGeometry x="1000" y="670" width="30" height="20" as="geometry" />
        </mxCell>
        <mxCell id="J9zRjc5HrnkV6WT7q6qR-78" value="" style="line;strokeWidth=1;html=1;fontSize=18;" vertex="1" parent="QFM437kmrdviyDUw9z9s-1">
          <mxGeometry x="30" y="720" width="1060" height="10" as="geometry" />
        </mxCell>
        <mxCell id="J9zRjc5HrnkV6WT7q6qR-79" value="Prev" style="rounded=0;whiteSpace=wrap;html=1;fontSize=18;strokeWidth=1;" vertex="1" parent="QFM437kmrdviyDUw9z9s-1">
          <mxGeometry x="440" y="780" width="70" height="40" as="geometry" />
        </mxCell>
        <mxCell id="J9zRjc5HrnkV6WT7q6qR-80" value="Next" style="rounded=0;whiteSpace=wrap;html=1;fontSize=18;strokeWidth=1;" vertex="1" parent="QFM437kmrdviyDUw9z9s-1">
          <mxGeometry x="600" y="780" width="70" height="40" as="geometry" />
        </mxCell>
        <mxCell id="J9zRjc5HrnkV6WT7q6qR-81" value="&lt;span style=&quot;line-height: 1.2&quot;&gt;&lt;font style=&quot;font-size: 24px&quot;&gt;1&lt;/font&gt;&lt;/span&gt;" style="text;html=1;points=[];align=center;verticalAlign=top;spacingTop=-4;fontSize=14;fontFamily=Verdana" vertex="1" parent="QFM437kmrdviyDUw9z9s-1">
          <mxGeometry x="520" y="780" width="70" height="40" as="geometry" />
        </mxCell>
        <mxCell id="J9zRjc5HrnkV6WT7q6qR-82" value="&lt;span style=&quot;color: rgba(0 , 0 , 0 , 0) ; font-family: monospace ; font-size: 0px&quot;&gt;jjhhgv&lt;/span&gt;" style="whiteSpace=wrap;html=1;rounded=0;shadow=0;labelBackgroundColor=none;strokeColor=#000000;strokeWidth=1;fillColor=none;fontFamily=Verdana;fontSize=12;fontColor=#000000;align=center;comic=1;glass=0;sketch=0;" vertex="1" parent="QFM437kmrdviyDUw9z9s-1">
          <mxGeometry x="30" y="910" width="1060" height="570" as="geometry" />
        </mxCell>
        <mxCell id="J9zRjc5HrnkV6WT7q6qR-83" value="Address: 512 Nguyen Xien, Long Thanh My Ward, Thu Duc City, Ho Chi Minh City" style="text;html=1;points=[];align=left;verticalAlign=top;spacingTop=-4;fontSize=14;fontFamily=Verdana" vertex="1" parent="QFM437kmrdviyDUw9z9s-1">
          <mxGeometry x="90" y="1030" width="690" height="20" as="geometry" />
        </mxCell>
        <mxCell id="J9zRjc5HrnkV6WT7q6qR-84" value="Email: 18110175@student.hcmute.edu.vn" style="text;html=1;points=[];align=left;verticalAlign=top;spacingTop=-4;fontSize=14;fontFamily=Verdana" vertex="1" parent="QFM437kmrdviyDUw9z9s-1">
          <mxGeometry x="90" y="1070" width="310" height="20" as="geometry" />
        </mxCell>
        <mxCell id="J9zRjc5HrnkV6WT7q6qR-85" value="Phone Number: (+84) 902-746-276" style="text;html=1;points=[];align=left;verticalAlign=top;spacingTop=-4;fontSize=14;fontFamily=Verdana" vertex="1" parent="QFM437kmrdviyDUw9z9s-1">
          <mxGeometry x="90" y="1110" width="320" height="20" as="geometry" />
        </mxCell>
        <mxCell id="J9zRjc5HrnkV6WT7q6qR-86" value="" style="whiteSpace=wrap;html=1;aspect=fixed;rounded=0;shadow=0;glass=0;sketch=0;fontSize=24;strokeWidth=1;" vertex="1" parent="QFM437kmrdviyDUw9z9s-1">
          <mxGeometry x="190" y="1225" width="60" height="60" as="geometry" />
        </mxCell>
        <mxCell id="J9zRjc5HrnkV6WT7q6qR-87" value="" style="ellipse;whiteSpace=wrap;html=1;aspect=fixed;rounded=0;shadow=0;glass=0;sketch=0;fontSize=24;strokeWidth=1;" vertex="1" parent="QFM437kmrdviyDUw9z9s-1">
          <mxGeometry x="370" y="1225" width="60" height="60" as="geometry" />
        </mxCell>
        <mxCell id="J9zRjc5HrnkV6WT7q6qR-88" value="" style="ellipse;whiteSpace=wrap;html=1;aspect=fixed;rounded=0;shadow=0;glass=0;sketch=0;fontSize=24;strokeWidth=1;" vertex="1" parent="QFM437kmrdviyDUw9z9s-1">
          <mxGeometry x="100" y="1225" width="60" height="60" as="geometry" />
        </mxCell>
        <mxCell id="J9zRjc5HrnkV6WT7q6qR-89" value="" style="whiteSpace=wrap;html=1;aspect=fixed;rounded=0;shadow=0;glass=0;sketch=0;fontSize=24;strokeWidth=1;" vertex="1" parent="QFM437kmrdviyDUw9z9s-1">
          <mxGeometry x="280" y="1225" width="60" height="60" as="geometry" />
        </mxCell>
        <mxCell id="J9zRjc5HrnkV6WT7q6qR-90" value="" style="line;strokeWidth=1;html=1;rounded=0;shadow=0;glass=0;sketch=0;fontSize=24;" vertex="1" parent="QFM437kmrdviyDUw9z9s-1">
          <mxGeometry x="30" y="1335" width="1060" height="10" as="geometry" />
        </mxCell>
        <mxCell id="J9zRjc5HrnkV6WT7q6qR-91" value="FOOTER" style="text;html=1;points=[];align=left;verticalAlign=top;spacingTop=-4;fontSize=14;fontFamily=Verdana" vertex="1" parent="QFM437kmrdviyDUw9z9s-1">
          <mxGeometry x="540" y="1400" width="70" height="20" as="geometry" />
        </mxCell>
        <mxCell id="J9zRjc5HrnkV6WT7q6qR-93" value="&lt;div style=&quot;background-color: rgb(255, 255, 255); font-family: menlo, monaco, &amp;quot;courier new&amp;quot;, monospace; font-size: 15px; line-height: 18px;&quot;&gt;Lorem, ipsum dolor sit amet consectetur adipisicing elit. Explicabo, nostrum.&lt;/div&gt;" style="text;html=1;points=[];align=left;verticalAlign=top;spacingTop=-4;fontSize=15;fontFamily=Verdana" vertex="1" parent="QFM437kmrdviyDUw9z9s-1">
          <mxGeometry x="290" y="570" width="60" height="20" as="geometry" />
        </mxCell>
        <mxCell id="J9zRjc5HrnkV6WT7q6qR-94" value="&lt;font style=&quot;font-size: 21px&quot;&gt;Title:&amp;nbsp;Lorem ipsum dolor sit.&lt;/font&gt;" style="text;html=1;points=[];align=left;verticalAlign=top;spacingTop=-4;fontSize=14;fontFamily=Verdana" vertex="1" parent="QFM437kmrdviyDUw9z9s-1">
          <mxGeometry x="60" y="200" width="220" height="40" as="geometry" />
        </mxCell>
        <mxCell id="gz1fb6HNWRbYxSa_AyRu-0" value="Writen by:&amp;nbsp;" style="text;html=1;points=[];align=left;verticalAlign=top;spacingTop=-4;fontSize=14;fontFamily=Verdana" vertex="1" parent="QFM437kmrdviyDUw9z9s-1">
          <mxGeometry x="67.5" y="260" width="60" height="20" as="geometry" />
        </mxCell>
        <mxCell id="ZwXzAbeOLV06LXl5-z5t-0" value="&lt;span style=&quot;color: rgb(136 , 136 , 136) ; font-family: , , &amp;#34;segoe ui&amp;#34; , &amp;#34;roboto&amp;#34; , &amp;#34;helvetica neue&amp;#34; , &amp;#34;arial&amp;#34; , &amp;#34;noto sans&amp;#34; , &amp;#34;liberation sans&amp;#34; , sans-serif , &amp;#34;apple color emoji&amp;#34; , &amp;#34;segoe ui emoji&amp;#34; , &amp;#34;segoe ui symbol&amp;#34; , &amp;#34;noto color emoji&amp;#34; ; font-size: 13.6px ; background-color: rgb(255 , 255 , 255)&quot;&gt;Published:&lt;span class=&quot;Apple-converted-space&quot;&gt;&amp;nbsp;&lt;/span&gt;&lt;/span&gt;&lt;span style=&quot;color: rgb(136 , 136 , 136) ; font-family: , , &amp;#34;segoe ui&amp;#34; , &amp;#34;roboto&amp;#34; , &amp;#34;helvetica neue&amp;#34; , &amp;#34;arial&amp;#34; , &amp;#34;noto sans&amp;#34; , &amp;#34;liberation sans&amp;#34; , sans-serif , &amp;#34;apple color emoji&amp;#34; , &amp;#34;segoe ui emoji&amp;#34; , &amp;#34;segoe ui symbol&amp;#34; , &amp;#34;noto color emoji&amp;#34; ; font-size: 13.6px ; background-color: rgb(255 , 255 , 255)&quot;&gt;2021-12-24&lt;/span&gt;" style="text;html=1;points=[];align=left;verticalAlign=top;spacingTop=-4;fontSize=14;fontFamily=Verdana" vertex="1" parent="QFM437kmrdviyDUw9z9s-1">
          <mxGeometry x="510" y="360" width="60" height="20" as="geometry" />
        </mxCell>
        <mxCell id="ZwXzAbeOLV06LXl5-z5t-1" value="" style="rounded=0;whiteSpace=wrap;html=1;fontSize=15;strokeWidth=1;" vertex="1" parent="QFM437kmrdviyDUw9z9s-1">
          <mxGeometry x="440" y="170" width="120" height="60" as="geometry" />
        </mxCell>
      </root>
    </mxGraphModel>
  </diagram>
</mxfile>
